<?xml version="1.0" encoding="utf-8"?>
<!-- Generator: Adobe Illustrator 18.0.0, SVG Export Plug-In . SVG Version: 6.00 Build 0)  -->
<!DOCTYPE svg PUBLIC "-//W3C//DTD SVG 1.1//EN" "http://www.w3.org/Graphics/SVG/1.1/DTD/svg11.dtd">
<svg version="1.1" id="Layer_1" xmlns="http://www.w3.org/2000/svg" xmlns:xlink="http://www.w3.org/1999/xlink" x="0px" y="0px"
	 viewBox="0 0 140 134" enable-background="new 0 0 140 134" xml:space="preserve">
<radialGradient id="SVGID_1_" cx="68.1454" cy="63.4149" r="81.0291" gradientTransform="matrix(1 0 0 1.0003 0 0)" gradientUnits="userSpaceOnUse">
	<stop  offset="0" style="stop-color:#FFFFFF"/>
	<stop  offset="1" style="stop-color:#E2C8C6"/>
</radialGradient>
<path fill-rule="evenodd" clip-rule="evenodd" fill="url(#SVGID_1_)" d="M138.7,23.7c-2.3-5.3-5.5-12.4-12.6-13.8
	C112.3,7,98.7,19.4,95.5,26c-2.8,5.8-1.3,10.2-0.6,17c0.6,6,0.4,13.3-3.3,22.3c-0.1,0.1-0.2,0.3-0.2,0.5c-0.1,0.1-0.2,0.3-0.3,0.5
	C88,71.4,84.6,75.5,81,78.8c-0.8,0.8-1.6,1.6-2.4,2.3c-0.5-0.6-0.9-1.1-1.4-1.8h0c0,0-0.1-0.1-0.1-0.1c-6.5-8.3-9.5-15.6-10.8-20.9
	c-0.9-3.8-0.8-6.3-1.3-10.2c-0.8-5.4-0.6-11.6,0.1-17.3c0.4-3.3,0.9-6.4,1.6-9.2c0.7-2.9,2.1-6.1,2.5-9.1c-0.2,1.9-0.8,3.6-1.5,5.2
	c0.5-1.3,0.9-2.6,1-4c0.1-1,0.1-1.9-0.1-2.9c-0.8-4-4.6-9.4-9.3-9.9C52,0.1,42.6,8.5,39.9,14.7c-2.6,5.9-1.9,9.7-2.7,15.6
	c-0.5,4.1-1.7,8.8-4.6,14.5c-0.1,0.1-0.1,0.3-0.2,0.4c-0.1,0.1-0.2,0.3-0.2,0.4c-2,3.1-4.1,5.7-6.3,8C19.6,60.3,10.7,64.1,6,72
	c-2.9,5-6.2,12.8-2.8,18.1c0.7,1.1,3.9,3.3,5,4c11.4,7.1,26.8-3.8,25-20.4c-0.1-10.5,0.6-17.9,4.9-25.6c0,0,0,0,0,0
	c0.1-0.3,0.3-0.5,0.4-0.8c0,0,0,0,0,0c0,0,0,0,0,0c0,0,0,0,0,0c0,0,0,0,0,0c0.1-0.2,0.3-0.5,0.4-0.7c0,0,0,0,0,0
	c2.4-4,5.3-7.4,8.9-10.6l0,0.1c0.2-0.2,0.6-0.4,0.9-0.6c3.6,5,6.4,11.1,7.5,16.1c0.8,3.8,1.9,7.7,2.3,11.6
	c1.4,11.4-0.7,26.6-2.9,35.8c-0.5,1.3-0.9,2.7-1.1,4.1c-0.1,0.5-0.3,0.9-0.4,1.4c-0.3,2-0.4,4.1-0.2,6.1c-0.9,4.6-1.4,7.1,2.4,12.1
	c2.4,3.2,7.4,7.2,9.2,8.3c16.4,9.9,39-6.2,34.4-25.7c-2.9-14.8-3.6-24.9,1.2-35c0,0,0,0,0,0c0.2-0.3,0.3-0.6,0.5-1c0,0,0,0,0,0
	c0,0,0,0,0,0c0,0,0,0,0,0c0,0,0,0,0,0c0,0,0,0,0,0c0.2-0.3,0.4-0.6,0.5-0.9c0,0,0,0,0,0c5-9.8,11.4-14.9,24.8-22.8
	C134.6,41,143.3,34.2,138.7,23.7z"/>
<g>
	<path fill-rule="evenodd" clip-rule="evenodd" fill="#FFFFFF" d="M136,18.7c-2.3-5.4-7.4-9.9-14.5-11.4c-14.1-2.9-26,7-29.2,13.7
		c-2.8,5.9-1.3,10.3-0.6,17.2c0.6,6.1,0.4,13.5-3.3,22.6c-0.1,0.2-0.2,0.3-0.2,0.5c-0.1,0.1-0.2,0.3-0.3,0.5
		c-3.1,5.1-6.6,9.2-10.2,12.6c-1.2,1.2-2.4,2.3-3.5,3.2c-3.5-4.4-5.9-8.5-7.6-12.2c-1.3-3-2.7-6.6-3.2-8.9c-1-3.9-0.8-6.4-1.3-10.3
		c-0.8-5.5-0.6-11.8,0.1-17.5c0.4-3.3,0.9-6.5,1.6-9.3c0.3-1.3,0.7-2.6,1.1-3.9c0.6-1.5,1.1-3.2,1.3-5l0-0.4V8.5
		c0-0.3-0.1-0.6-0.1-0.9c-0.8-4-4.1-6.9-8.9-7.5c-7.3-0.9-17.4,5.1-20.2,11.4c-2.7,6-1.9,9.8-2.7,15.8c-0.5,4.1-1.8,8.9-4.7,14.7
		c-0.1,0.1-0.1,0.3-0.2,0.4c-0.1,0.1-0.2,0.2-0.2,0.4c-2.1,3.1-4.2,5.8-6.3,8.1C16.4,57.7,7.4,61.5,2.7,69.5
		C-0.8,75.5-1.7,87.7,5,91.8C16.5,99,32.1,88,30.3,71.2c-0.1-10.6,0.6-18.1,4.9-25.9c0,0,0,0,0,0c0.1-0.3,0.3-0.5,0.4-0.8
		c0,0,0,0,0,0c0,0,0,0,0,0c0,0,0,0,0,0c0,0,0,0,0,0c0.1-0.2,0.3-0.5,0.4-0.7c0,0,0,0,0,0c2.4-4.1,5.3-7.5,9-10.7l0,0.1l0.2-0.1
		c3.8,5.1,6.7,11.6,7.8,16.7c0.8,3.9,1.9,7.8,2.4,11.7c1.4,11.5-0.8,26.9-2.9,36.2c-0.5,1.2-0.8,2.4-1,3.6c-0.2,0.6-0.3,1.1-0.5,1.8
		c-0.2,1.4-0.3,2.7-0.3,4.1l0,0.2v0c0,7.8,3.6,15.4,11.3,20.1c1.2,0.7,2.8,1.4,4.1,1.9v0c0.1,0,0.1,0,0.2,0c0.1,0,0.2,0.1,0.3,0.1
		v-0.1c12.3,3.9,26.3-4.3,29.9-16.6l0.1-0.4c1-3.5,1.2-7.3,0.2-11.2c-2.9-15-3.6-25.2,1.2-35.4c0,0,0,0,0,0c0.2-0.3,0.3-0.7,0.5-1
		c0,0,0,0,0,0c0,0,0,0,0,0c0,0,0,0,0,0c0,0,0,0,0,0c0,0,0,0,0,0c0.2-0.3,0.4-0.6,0.5-1c0,0,0,0,0,0c5-9.9,11.5-15.1,25.1-23.1
		c5.9-3.5,12.5-8.3,13.1-15.2v-2.3C137.1,21.8,136.7,20.3,136,18.7z"/>
</g>
</svg>
